<!DOCTYPE svg PUBLIC "-//W3C//DTD SVG 1.1//EN" "http://www.w3.org/Graphics/SVG/1.1/DTD/svg11.dtd">
<!-- Uploaded to: SVG Repo, www.svgrepo.com, Transformed by: SVG Repo Mixer Tools -->
<svg fill="#ffffff" width="256px" height="256px" viewBox="-2.4 -2.4 28.80 28.80" data-name="Layer 1" id="Layer_1" xmlns="http://www.w3.org/2000/svg" stroke="#ffffff" stroke-width="0.00024000000000000003" transform="matrix(1, 0, 0, 1, 0, 0)rotate(0)">
<g id="SVGRepo_bgCarrier" stroke-width="0"/>
<g id="SVGRepo_tracerCarrier" stroke-linecap="round" stroke-linejoin="round" stroke="#ffffffCCCCCC" stroke-width="0.384"/>
<g id="SVGRepo_iconCarrier">
<title/>
<path d="M7,16h.42a5,5,0,0,0,7.33,2.17l4.54,4.54,1.41-1.41-4.54-4.54a5,5,0,0,0,.41-.75H17A5,5,0,1,0,17,6h-.1A5,5,0,0,0,7.1,6H7A5,5,0,1,0,7,16Zm5,1a3,3,0,1,1,3-3A3,3,0,0,1,12,17ZM7,8H9V7a3,3,0,0,1,6,0V8h2a3,3,0,0,1,0,6A5,5,0,0,0,7,14,3,3,0,0,1,7,8Z"/>
</g>
</svg>