<?xml version="1.0" encoding="iso-8859-1"?>
<!-- Uploaded to: SVG Repo, www.svgrepo.com, Generator: SVG Repo Mixer Tools -->
<svg height="800px" width="800px" version="1.1" id="Layer_1" xmlns="http://www.w3.org/2000/svg" xmlns:xlink="http://www.w3.org/1999/xlink" 
	 viewBox="0 0 512 512" xml:space="preserve">
<path style="fill:#52A2E7;" d="M261.997,177.583c2.898-13.729,14.485-19.742,27.898-23.452
	c5.044-29.825,30.981-52.546,62.241-52.546c25.354,0,47.204,14.95,57.252,36.508c3.36-0.79,6.859-1.222,10.459-1.222
	c20.981,0,38.635,14.206,43.895,33.52c3.364-1.318,7.022-2.05,10.853-2.05c16.439,0,29.766,13.326,29.766,29.766
	s-13.326,29.766-29.766,29.766H220.608L261.997,177.583z"/>
<path style="fill:#8EC1ED;" d="M247.796,228.431c15.135,0,27.405-12.27,27.405-27.405c0-15.135-12.27-27.405-27.405-27.405
	c-4.562,0-8.86,1.121-12.644,3.093c-3.766-7.458-10.068-13.416-17.78-16.731c0-0.068,0.005-0.135,0.005-0.204
	c0-37.915-30.736-68.651-68.651-68.651c-31.398,0-57.855,21.087-66.027,49.866c-18.077,3.172-32.353,17.356-35.659,35.388
	c-3.624-1.767-7.694-2.762-11.997-2.762c-15.135,0-27.405,12.27-27.405,27.405c0,15.135,12.27,27.405,27.405,27.405h212.753V228.431
	z"/>
<path d="M474.595,160.704c-2.026,0-4.033,0.162-6.012,0.484c-8.323-19.138-27.405-31.954-48.736-31.954
	c-2.086,0-4.179,0.125-6.262,0.374c-12.519-21.839-36.034-35.66-61.448-35.66c-33.037,0-61.245,22.512-68.81,54.184
	c-9.431,3.094-20.13,8.426-25.752,19.25c-3.105-0.904-6.385-1.398-9.779-1.398c-3.203,0-6.4,0.446-9.479,1.31
	c-3.58-4.915-8.162-9.039-13.435-12.076c-2.37-39.95-35.622-71.726-76.155-71.726c-32.389,0-61.35,20.758-71.98,51.018
	c-16.16,4.413-29.217,16.524-34.936,32.125c-2.21-0.433-4.47-0.65-6.768-0.65C15.721,165.983,0,181.703,0,201.026
	s15.721,35.044,35.044,35.044h212.753c2.111,0,4.177-0.199,6.186-0.558h220.613c20.625,0,37.405-16.78,37.405-37.404
	C512,177.484,495.22,160.704,474.595,160.704z M15.278,201.026c0-10.899,8.867-19.766,19.766-19.766
	c3.034,0,5.943,0.669,8.649,1.989c2.147,1.046,4.661,1.03,6.793-0.048c2.133-1.078,3.638-3.09,4.069-5.44
	c2.728-14.876,14.569-26.628,29.465-29.241c2.885-0.506,5.227-2.619,6.027-5.437c7.41-26.092,31.539-44.314,58.679-44.314
	c33.612,0,60.962,27.317,61.012,60.918c-0.002,0.085-0.005,0.187-0.005,0.243c-0.021,3.073,1.8,5.859,4.623,7.074
	c6.041,2.596,11.005,7.268,13.977,13.155c0.921,1.824,2.533,3.203,4.478,3.829c1.944,0.626,4.059,0.446,5.871-0.497
	c2.838-1.479,5.903-2.229,9.114-2.229c10.899,0,19.766,8.867,19.766,19.766c0,9.319-6.491,17.133-15.184,19.208h-31.771
	c-1.011,0-1.974,0.201-2.858,0.558H35.044C24.145,220.792,15.278,211.925,15.278,201.026z M474.595,220.235h-197.51
	c3.633-5.52,5.755-12.12,5.755-19.208c0-10.44-4.594-19.821-11.86-26.247c3.008-6.037,9.571-10.137,20.953-13.286
	c2.858-0.79,5.001-3.164,5.495-6.089c4.524-26.758,27.533-46.18,54.709-46.18c21.486,0,41.241,12.599,50.328,32.096
	c1.529,3.281,5.15,5.038,8.674,4.209c2.872-0.676,5.802-1.019,8.709-1.019c17.033,0,32.053,11.468,36.526,27.889
	c0.57,2.093,2.002,3.844,3.941,4.818c1.938,0.975,4.199,1.078,6.218,0.287c2.579-1.011,5.292-1.524,8.064-1.524
	c12.201,0,22.127,9.926,22.127,22.127C496.722,210.31,486.796,220.235,474.595,220.235z"/>
<path d="M40.051,260.776c-1.584-3.91-6.038-5.796-9.948-4.214c-3.91,1.584-5.796,6.037-4.214,9.948l13.199,32.597
	c1.203,2.971,4.063,4.774,7.083,4.774c0.955,0,1.925-0.18,2.865-0.56c3.91-1.584,5.796-6.037,4.214-9.948L40.051,260.776z"/>
<path d="M102.213,260.776c-1.584-3.91-6.038-5.796-9.948-4.214c-3.91,1.584-5.796,6.037-4.214,9.948l13.199,32.597
	c1.203,2.971,4.063,4.774,7.083,4.774c0.955,0,1.925-0.18,2.865-0.56c3.91-1.584,5.796-6.037,4.214-9.948L102.213,260.776z"/>
<path d="M164.375,260.776c-1.584-3.91-6.038-5.796-9.948-4.214c-3.91,1.584-5.796,6.037-4.214,9.948l13.199,32.597
	c1.203,2.971,4.063,4.774,7.083,4.774c0.955,0,1.925-0.18,2.865-0.56c3.91-1.584,5.796-6.037,4.214-9.948L164.375,260.776z"/>
<path d="M226.536,260.776c-1.584-3.91-6.037-5.796-9.948-4.214c-3.91,1.584-5.796,6.037-4.214,9.948l13.199,32.597
	c1.203,2.971,4.063,4.774,7.083,4.774c0.955,0,1.925-0.18,2.865-0.56c3.91-1.584,5.796-6.037,4.214-9.948L226.536,260.776z"/>
<path d="M288.699,260.776c-1.584-3.91-6.037-5.796-9.948-4.214c-3.91,1.584-5.796,6.037-4.214,9.948l13.199,32.597
	c1.203,2.971,4.063,4.774,7.083,4.774c0.955,0,1.925-0.18,2.865-0.56c3.91-1.584,5.796-6.037,4.214-9.948L288.699,260.776z"/>
<path d="M350.86,260.776c-1.584-3.91-6.038-5.796-9.948-4.214c-3.91,1.584-5.796,6.037-4.214,9.948l13.199,32.597
	c1.203,2.971,4.063,4.774,7.083,4.774c0.955,0,1.925-0.18,2.865-0.56c3.91-1.584,5.796-6.037,4.214-9.948L350.86,260.776z"/>
<path d="M413.022,260.776c-1.584-3.91-6.038-5.796-9.948-4.214c-3.91,1.584-5.796,6.037-4.214,9.948l13.199,32.597
	c1.203,2.971,4.063,4.774,7.083,4.774c0.955,0,1.925-0.18,2.865-0.56c3.91-1.584,5.796-6.037,4.214-9.948L413.022,260.776z"/>
<path d="M475.184,260.776c-1.584-3.91-6.038-5.796-9.948-4.214c-3.91,1.584-5.796,6.037-4.214,9.948l13.199,32.597
	c1.203,2.971,4.063,4.774,7.083,4.774c0.955,0,1.925-0.18,2.865-0.56c3.91-1.584,5.796-6.037,4.214-9.948L475.184,260.776z"/>
<path d="M90.976,321.338c-1.584-3.91-6.038-5.796-9.948-4.214c-3.91,1.584-5.796,6.037-4.214,9.948l13.199,32.597
	c1.203,2.971,4.063,4.774,7.083,4.774c0.955,0,1.925-0.18,2.865-0.56c3.91-1.584,5.796-6.037,4.214-9.948L90.976,321.338z"/>
<path d="M153.138,321.338c-1.584-3.91-6.037-5.796-9.948-4.214c-3.91,1.584-5.796,6.037-4.214,9.948l13.199,32.597
	c1.203,2.971,4.063,4.774,7.083,4.774c0.955,0,1.925-0.18,2.865-0.56c3.91-1.584,5.796-6.037,4.214-9.948L153.138,321.338z"/>
<path d="M215.3,321.338c-1.584-3.91-6.037-5.796-9.948-4.214c-3.91,1.584-5.796,6.037-4.214,9.948l13.199,32.597
	c1.203,2.971,4.063,4.774,7.083,4.774c0.955,0,1.925-0.18,2.865-0.56c3.91-1.584,5.796-6.037,4.214-9.948L215.3,321.338z"/>
<path d="M277.461,321.338c-1.584-3.91-6.039-5.796-9.948-4.214c-3.91,1.584-5.796,6.037-4.214,9.948l13.199,32.597
	c1.203,2.971,4.063,4.774,7.083,4.774c0.955,0,1.925-0.18,2.865-0.56c3.91-1.584,5.796-6.037,4.214-9.948L277.461,321.338z"/>
<path d="M339.624,321.338c-1.584-3.91-6.038-5.796-9.948-4.214c-3.91,1.584-5.796,6.037-4.214,9.948l13.199,32.597
	c1.203,2.971,4.063,4.774,7.083,4.774c0.955,0,1.925-0.18,2.865-0.56c3.91-1.584,5.796-6.037,4.214-9.948L339.624,321.338z"/>
<path d="M401.785,321.338c-1.584-3.91-6.037-5.796-9.948-4.214c-3.91,1.584-5.796,6.037-4.214,9.948l13.199,32.597
	c1.203,2.971,4.063,4.774,7.083,4.774c0.955,0,1.925-0.18,2.865-0.56c3.91-1.584,5.796-6.037,4.214-9.948L401.785,321.338z"/>
<path d="M463.947,321.338c-1.584-3.91-6.037-5.796-9.948-4.214c-3.91,1.584-5.796,6.037-4.214,9.948l13.199,32.597
	c1.203,2.971,4.063,4.774,7.083,4.774c0.955,0,1.925-0.18,2.865-0.56c3.91-1.584,5.796-6.037,4.214-9.948L463.947,321.338z"/>
<path d="M141.901,385.405c-1.584-3.91-6.037-5.796-9.948-4.214c-3.91,1.583-5.796,6.037-4.214,9.948l13.199,32.597
	c1.203,2.971,4.063,4.774,7.083,4.774c0.955,0,1.925-0.18,2.865-0.56c3.91-1.584,5.796-6.037,4.214-9.948L141.901,385.405z"/>
<path d="M204.063,385.405c-1.584-3.91-6.039-5.796-9.948-4.214c-3.91,1.583-5.796,6.037-4.214,9.948l13.199,32.597
	c1.203,2.971,4.063,4.774,7.083,4.774c0.955,0,1.925-0.18,2.865-0.56c3.91-1.584,5.796-6.037,4.214-9.948L204.063,385.405z"/>
<path d="M266.225,385.405c-1.584-3.91-6.038-5.796-9.948-4.214c-3.91,1.583-5.796,6.037-4.214,9.948l13.199,32.597
	c1.203,2.971,4.063,4.774,7.083,4.774c0.955,0,1.925-0.18,2.865-0.56c3.91-1.584,5.796-6.037,4.214-9.948L266.225,385.405z"/>
<path d="M328.386,385.405c-1.583-3.91-6.038-5.796-9.948-4.214c-3.91,1.583-5.796,6.037-4.214,9.948l13.199,32.597
	c1.203,2.971,4.063,4.774,7.083,4.774c0.955,0,1.925-0.18,2.865-0.56c3.91-1.584,5.796-6.037,4.214-9.948L328.386,385.405z"/>
<path d="M390.549,385.405c-1.584-3.91-6.037-5.796-9.948-4.214c-3.91,1.583-5.796,6.037-4.214,9.948l13.199,32.597
	c1.203,2.971,4.063,4.774,7.083,4.774c0.955,0,1.925-0.18,2.865-0.56c3.91-1.584,5.796-6.037,4.214-9.948L390.549,385.405z"/>
<path d="M452.71,385.405c-1.584-3.91-6.039-5.796-9.948-4.214c-3.91,1.584-5.796,6.037-4.214,9.948l13.199,32.597
	c1.203,2.971,4.063,4.774,7.083,4.774c0.955,0,1.925-0.18,2.865-0.56c3.91-1.584,5.796-6.037,4.214-9.948L452.71,385.405z"/>
</svg>